<svg id="visual" viewBox="0 0 960 300" width="960" height="300" xmlns="http://www.w3.org/2000/svg" xmlns:xlink="http://www.w3.org/1999/xlink" version="1.1"><rect x="0" y="0" width="960" height="300" fill="#181818"></rect><defs><linearGradient id="grad1_0" x1="68.8%" y1="0%" x2="100%" y2="100%"><stop offset="-14.000000000000007%" stop-color="#b83adf" stop-opacity="1"></stop><stop offset="114.00000000000001%" stop-color="#b83adf" stop-opacity="1"></stop></linearGradient></defs><defs><linearGradient id="grad1_1" x1="68.8%" y1="0%" x2="100%" y2="100%"><stop offset="-14.000000000000007%" stop-color="#b83adf" stop-opacity="1"></stop><stop offset="114.00000000000001%" stop-color="#181818" stop-opacity="1"></stop></linearGradient></defs><defs><linearGradient id="grad2_0" x1="0%" y1="0%" x2="31.3%" y2="100%"><stop offset="-14.000000000000007%" stop-color="#b83adf" stop-opacity="1"></stop><stop offset="114.00000000000001%" stop-color="#b83adf" stop-opacity="1"></stop></linearGradient></defs><defs><linearGradient id="grad2_1" x1="0%" y1="0%" x2="31.3%" y2="100%"><stop offset="-14.000000000000007%" stop-color="#181818" stop-opacity="1"></stop><stop offset="114.00000000000001%" stop-color="#b83adf" stop-opacity="1"></stop></linearGradient></defs><g transform="translate(960, 0)"><path d="M0 135C-20.5 126.3 -41 117.5 -62 107.4C-83 97.2 -104.7 85.6 -116.9 67.5C-129.2 49.4 -132.1 24.7 -135 0L0 0Z" fill="#642e74"></path><path d="M0 67.5C-10.2 63.1 -20.5 58.8 -31 53.7C-41.5 48.6 -52.3 42.8 -58.5 33.8C-64.6 24.7 -66 12.3 -67.5 0L0 0Z" fill="#b83adf"></path></g><g transform="translate(0, 300)"><path d="M0 -135C16.2 -118.9 32.4 -102.8 54 -93.5C75.6 -84.3 102.5 -81.9 116.9 -67.5C131.3 -53.1 133.2 -26.5 135 0L0 0Z" fill="#642e74"></path><path d="M0 -67.5C8.1 -59.4 16.2 -51.4 27 -46.8C37.8 -42.1 51.3 -41 58.5 -33.8C65.7 -26.5 66.6 -13.3 67.5 0L0 0Z" fill="#b83adf"></path></g></svg>